<?xml version="1.0" standalone="no"?>
<!DOCTYPE svg PUBLIC "-//W3C//DTD SVG 20010904//EN"
 "http://www.w3.org/TR/2001/REC-SVG-20010904/DTD/svg10.dtd">
<svg version="1.0" xmlns="http://www.w3.org/2000/svg"
 width="128.000000pt" height="128.000000pt" viewBox="0 0 128.000000 128.000000"
 preserveAspectRatio="xMidYMid meet">

<g transform="translate(0.000000,128.000000) scale(0.100000,-0.100000)"
fill="#000000" stroke="none">
<path d="M340 1230 c-23 -25 -33 -29 -59 -24 -25 5 -36 1 -62 -25 -26 -27 -30
-37 -25 -63 5 -26 1 -36 -28 -64 -19 -19 -42 -34 -51 -34 -21 0 -55 -36 -55
-60 0 -11 9 -29 21 -41 11 -11 23 -36 26 -54 5 -30 2 -35 -36 -59 -22 -14 -43
-37 -47 -50 -12 -50 39 -91 85 -66 17 8 21 8 21 -3 0 -8 9 -26 21 -41 18 -23
27 -26 85 -26 l64 0 0 -100 0 -100 -120 0 c-107 0 -122 -2 -140 -20 -25 -25
-25 -55 0 -80 18 -18 33 -20 140 -20 l120 0 0 -120 c0 -107 2 -122 20 -140 19
-19 33 -20 460 -20 427 0 441 1 460 20 19 19 20 33 20 360 0 327 -1 341 -20
360 -19 19 -33 20 -246 20 -215 0 -227 1 -265 23 -38 20 -40 25 -36 58 3 20
14 46 26 58 19 19 33 21 121 21 l100 0 0 60 0 60 40 0 40 0 0 -60 0 -60 120 0
120 0 0 140 0 140 -120 0 -120 0 0 -60 0 -60 -40 0 -40 0 0 60 0 60 -120 0
-120 0 0 -60 0 -60 -49 0 c-46 0 -48 1 -44 25 4 18 -3 33 -26 56 -26 26 -37
30 -62 25 -26 -5 -36 -1 -59 24 -20 21 -37 30 -60 30 -23 0 -40 -9 -60 -30z
m103 -41 c24 -27 32 -31 62 -26 46 8 66 -12 58 -57 -4 -29 -1 -39 22 -60 l28
-26 -36 0 c-31 0 -38 5 -54 37 -53 108 -193 108 -246 0 -16 -32 -23 -37 -54
-37 l-36 0 28 26 c23 21 26 31 22 60 -8 45 12 65 58 57 30 -5 38 -1 62 26 15
17 34 31 43 31 9 0 28 -14 43 -31z m457 -109 l0 -100 -80 0 -80 0 0 100 0 100
80 0 80 0 0 -100z m320 0 l0 -100 -80 0 -80 0 0 100 0 100 80 0 80 0 0 -100z
m-771 6 c28 -15 60 -66 40 -66 -6 0 -17 7 -25 15 -9 8 -26 18 -40 21 -30 8
-68 -1 -88 -21 -24 -24 -37 -19 -24 11 22 48 85 67 137 40z m251 -46 c0 -13
-7 -20 -20 -20 -10 0 -24 9 -30 20 -10 18 -8 20 20 20 23 0 30 -4 30 -20z
m-260 -40 c11 -11 20 -29 20 -40 0 -26 -34 -60 -60 -60 -26 0 -60 34 -60 60 0
11 9 29 20 40 11 11 29 20 40 20 11 0 29 -9 40 -20z m-140 -40 c0 -19 -7 -20
-94 -20 -90 0 -115 7 -101 30 3 6 48 10 101 10 87 0 94 -1 94 -20z m395 0 c0
-12 -19 -16 -97 -18 -93 -3 -98 -2 -98 18 0 20 5 21 98 18 78 -2 97 -6 97 -18z
m-361 -81 c-8 -13 -237 -152 -252 -153 -45 -3 -5 35 107 105 95 59 127 74 137
65 6 -6 10 -14 8 -17z m-142 1 c-40 -24 -38 -24 -45 0 -5 18 0 20 36 20 l42 0
-33 -20z m448 -72 l45 -28 -34 0 c-23 0 -56 15 -107 47 -41 25 -74 49 -74 53
0 26 38 10 170 -72z m12 67 l-4 -25 -37 22 c-20 12 -38 23 -40 25 -2 2 16 3
41 3 43 0 45 -1 40 -25z m-178 -52 l61 -38 -103 -5 c-118 -6 -132 -15 -132
-82 0 -31 -4 -38 -20 -38 -17 0 -20 7 -20 40 0 33 -3 40 -20 40 -17 0 -20 -7
-20 -40 0 -33 -4 -40 -19 -40 -19 0 -31 18 -31 48 0 18 202 151 229 152 7 0
41 -17 75 -37z m744 -145 l3 -58 -441 0 -440 0 0 53 c0 30 3 57 7 60 3 4 200
6 437 5 l431 -3 3 -57z m0 -355 l-3 -258 -435 0 -435 0 -3 118 c-3 112 -2 117
18 117 17 0 20 -6 20 -48 0 -26 5 -53 12 -60 17 -17 399 -17 416 0 17 17 17
319 0 336 -17 17 -399 17 -416 0 -7 -7 -12 -34 -12 -60 0 -41 -3 -48 -20 -48
-18 0 -20 7 -20 80 l0 80 440 0 440 0 -2 -257z m-438 37 l0 -140 -180 0 -180
0 0 40 0 40 51 0 c31 0 56 -6 65 -15 38 -38 125 -25 176 25 36 36 36 64 0 100
-51 50 -138 63 -176 25 -9 -9 -34 -15 -65 -15 l-51 0 0 40 0 40 180 0 180 0 0
-140z m-125 44 c56 -26 56 -62 0 -88 -18 -9 -42 -16 -54 -16 -27 0 -61 34 -61
60 0 26 34 60 61 60 12 0 36 -7 54 -16z m-155 -44 c0 -19 -7 -20 -214 -20
-207 0 -237 4 -221 30 4 6 88 10 221 10 207 0 214 -1 214 -20z"/>
<path d="M780 1120 c0 -17 7 -20 40 -20 33 0 40 3 40 20 0 17 -7 20 -40 20
-33 0 -40 -3 -40 -20z"/>
<path d="M780 1040 c0 -17 7 -20 40 -20 33 0 40 3 40 20 0 17 -7 20 -40 20
-33 0 -40 -3 -40 -20z"/>
<path d="M1100 1120 c0 -17 7 -20 40 -20 33 0 40 3 40 20 0 17 -7 20 -40 20
-33 0 -40 -3 -40 -20z"/>
<path d="M1100 1040 c0 -17 7 -20 40 -20 33 0 40 3 40 20 0 17 -7 20 -40 20
-33 0 -40 -3 -40 -20z"/>
<path d="M380 680 c0 -13 7 -20 20 -20 13 0 20 7 20 20 0 13 -7 20 -20 20 -13
0 -20 -7 -20 -20z"/>
<path d="M460 680 c0 -13 7 -20 20 -20 13 0 20 7 20 20 0 13 -7 20 -20 20 -13
0 -20 -7 -20 -20z"/>
<path d="M540 680 c0 -13 7 -20 20 -20 13 0 20 7 20 20 0 13 -7 20 -20 20 -13
0 -20 -7 -20 -20z"/>
<path d="M860 480 l0 -60 160 0 160 0 0 60 0 60 -160 0 -160 0 0 -60z m280 0
c0 -19 -7 -20 -120 -20 -113 0 -120 1 -120 20 0 19 7 20 120 20 113 0 120 -1
120 -20z"/>
<path d="M860 360 c0 -17 7 -20 40 -20 33 0 40 3 40 20 0 17 -7 20 -40 20 -33
0 -40 -3 -40 -20z"/>
<path d="M980 360 c0 -19 7 -20 100 -20 93 0 100 1 100 20 0 19 -7 20 -100 20
-93 0 -100 -1 -100 -20z"/>
<path d="M860 280 c0 -19 7 -20 160 -20 153 0 160 1 160 20 0 19 -7 20 -160
20 -153 0 -160 -1 -160 -20z"/>
<path d="M860 200 c0 -18 7 -20 60 -20 53 0 60 2 60 20 0 18 -7 20 -60 20 -53
0 -60 -2 -60 -20z"/>
<path d="M1020 200 c0 -13 7 -20 20 -20 13 0 20 7 20 20 0 13 -7 20 -20 20
-13 0 -20 -7 -20 -20z"/>
<path d="M1100 200 c0 -17 7 -20 40 -20 33 0 40 3 40 20 0 17 -7 20 -40 20
-33 0 -40 -3 -40 -20z"/>
<path d="M380 120 c0 -13 7 -20 20 -20 13 0 20 7 20 20 0 13 -7 20 -20 20 -13
0 -20 -7 -20 -20z"/>
<path d="M460 120 c0 -18 7 -20 60 -20 53 0 60 2 60 20 0 18 -7 20 -60 20 -53
0 -60 -2 -60 -20z"/>
<path d="M620 120 c0 -19 7 -20 100 -20 93 0 100 1 100 20 0 19 -7 20 -100 20
-93 0 -100 -1 -100 -20z"/>
<path d="M980 120 c0 -13 7 -20 20 -20 13 0 20 7 20 20 0 13 -7 20 -20 20 -13
0 -20 -7 -20 -20z"/>
<path d="M1060 120 c0 -13 7 -20 20 -20 13 0 20 7 20 20 0 13 -7 20 -20 20
-13 0 -20 -7 -20 -20z"/>
<path d="M1140 120 c0 -13 7 -20 20 -20 13 0 20 7 20 20 0 13 -7 20 -20 20
-13 0 -20 -7 -20 -20z"/>
</g>
</svg>
