<svg id="Capa_1" enable-background="new 0 0 512 512" height="512" viewBox="0 0 512 512" width="512" xmlns="http://www.w3.org/2000/svg"><g><path d="m188.5 338.5v60c0 16.542 13.458 30 30 30s30-13.458 30-30v-60c0-16.542-13.458-30-30-30s-30 13.458-30 30zm15 0c0-8.271 6.729-15 15-15s15 6.729 15 15v60c0 8.271-6.729 15-15 15s-15-6.729-15-15z"/><path d="m383.5 316v68.46l-30.606-71.415c-1.402-3.272-4.912-5.113-8.401-4.392-3.488.716-5.992 3.786-5.992 7.347v105c0 4.142 3.357 7.5 7.5 7.5s7.5-3.358 7.5-7.5v-68.46l30.606 71.415c1.199 2.799 3.94 4.546 6.891 4.546.499 0 1.006-.05 1.511-.154 3.488-.716 5.992-3.786 5.992-7.347v-105c0-4.142-3.357-7.5-7.5-7.5s-7.501 3.358-7.501 7.5z"/><path d="m263.5 338.5v60c0 16.542 13.458 30 30 30s30-13.458 30-30v-60c0-16.542-13.458-30-30-30s-30 13.458-30 30zm15 0c0-8.271 6.729-15 15-15s15 6.729 15 15v60c0 8.271-6.729 15-15 15s-15-6.729-15-15z"/><path d="m113.5 338.5c0 8.609 3.712 16.816 10.178 22.51l29.727 26.231c3.238 2.852 5.096 6.956 5.096 11.258 0 8.271-6.729 15-15 15s-15-6.729-15-15c0-4.142-3.357-7.5-7.5-7.5s-7.5 3.358-7.5 7.5c0 16.542 13.458 30 30 30s30-13.458 30-30c0-8.61-3.711-16.816-10.177-22.51l-29.727-26.231c-3.239-2.853-5.097-6.956-5.097-11.258 0-8.271 6.729-15 15-15s15 6.729 15 15c0 4.142 3.357 7.5 7.5 7.5s7.5-3.358 7.5-7.5c0-16.542-13.458-30-30-30s-30 13.458-30 30z"/><path d="m166 173.5c-16.542 0-30 13.458-30 30v60c0 16.542 13.458 30 30 30s30-13.458 30-30v-60c0-16.542-13.458-30-30-30zm15 90c0 8.271-6.729 15-15 15s-15-6.729-15-15v-60c0-8.271 6.729-15 15-15s15 6.729 15 15z"/><path d="m421 188.5c8.271 0 15 6.729 15 15 0 4.142 3.357 7.5 7.5 7.5s7.5-3.358 7.5-7.5c0-16.542-13.458-30-30-30s-30 13.458-30 30v60c0 16.542 13.458 30 30 30s30-13.458 30-30v-30c0-4.142-3.357-7.5-7.5-7.5h-15c-4.143 0-7.5 3.358-7.5 7.5s3.357 7.5 7.5 7.5h7.5v22.5c0 8.271-6.729 15-15 15s-15-6.729-15-15v-60c0-8.271 6.729-15 15-15z"/><path d="m265.008 173.653c-3.483-.717-6.999 1.12-8.401 4.392l-15.607 36.415-15.606-36.415c-1.402-3.272-4.911-5.112-8.401-4.392-3.489.716-5.993 3.786-5.993 7.347v105c0 4.142 3.357 7.5 7.5 7.5s7.5-3.358 7.5-7.5v-68.46l8.106 18.915c1.182 2.757 3.894 4.545 6.894 4.545s5.712-1.788 6.894-4.545l8.106-18.915v68.46c0 4.142 3.357 7.5 7.5 7.5s7.5-3.358 7.5-7.5v-105c0-3.561-2.504-6.631-5.992-7.347z"/><path d="m301 286v-105c0-4.142-3.357-7.5-7.5-7.5s-7.5 3.358-7.5 7.5v105c0 4.142 3.357 7.5 7.5 7.5s7.5-3.358 7.5-7.5z"/><path d="m91 188.5c8.271 0 15 6.729 15 15 0 4.142 3.357 7.5 7.5 7.5s7.5-3.358 7.5-7.5c0-16.542-13.458-30-30-30s-30 13.458-30 30v60c0 16.542 13.458 30 30 30s30-13.458 30-30c0-4.142-3.357-7.5-7.5-7.5s-7.5 3.358-7.5 7.5c0 8.271-6.729 15-15 15s-15-6.729-15-15v-60c0-8.271 6.729-15 15-15z"/><path d="m368.5 173.5c-4.143 0-7.5 3.358-7.5 7.5v68.46l-30.606-71.415c-1.402-3.272-4.913-5.112-8.401-4.392-3.489.716-5.993 3.786-5.993 7.347v105c0 4.142 3.357 7.5 7.5 7.5s7.5-3.358 7.5-7.5v-68.46l30.606 71.415c1.199 2.799 3.94 4.546 6.891 4.546.499 0 1.006-.05 1.511-.154 3.488-.716 5.992-3.786 5.992-7.347v-105c0-4.142-3.357-7.5-7.5-7.5z"/><path d="m474.5 105h-102.286l-101.821-84.795c-3.911-3.244-8.927-5.205-14.393-5.205s-10.482 1.961-14.385 5.214c-.008-.009-101.829 84.786-101.829 84.786h-102.286c-20.678 0-37.5 16.822-37.5 37.5v317c0 20.678 16.822 37.5 37.5 37.5h437c20.678 0 37.5-16.822 37.5-37.5v-317c0-20.678-16.822-37.5-37.5-37.5zm-211-67.5c0 4.136-3.364 7.5-7.5 7.5s-7.5-3.364-7.5-7.5 3.364-7.5 7.5-7.5 7.5 3.364 7.5 7.5zm-28.6 7.811c3.182 8.568 11.439 14.689 21.1 14.689s17.918-6.121 21.1-14.689l71.674 59.689h-185.548zm262.1 414.189c0 12.407-10.094 22.5-22.5 22.5h-437c-12.406 0-22.5-10.093-22.5-22.5v-317c0-12.407 10.094-22.5 22.5-22.5h437c12.406 0 22.5 10.093 22.5 22.5z"/><path d="m474.5 135h-437c-4.143 0-7.5 3.358-7.5 7.5v143.5c0 4.142 3.357 7.5 7.5 7.5s7.5-3.358 7.5-7.5v-136h422v302h-422v-136c0-4.142-3.357-7.5-7.5-7.5s-7.5 3.358-7.5 7.5v143.5c0 4.142 3.357 7.5 7.5 7.5h437c4.143 0 7.5-3.358 7.5-7.5v-317c0-4.142-3.357-7.5-7.5-7.5z"/></g></svg>