<?xml version="1.0" standalone="no"?>
<!DOCTYPE svg PUBLIC "-//W3C//DTD SVG 20010904//EN"
 "http://www.w3.org/TR/2001/REC-SVG-20010904/DTD/svg10.dtd">
<svg version="1.0" xmlns="http://www.w3.org/2000/svg"
 width="128.000000pt" height="128.000000pt" viewBox="0 0 128.000000 128.000000"
 preserveAspectRatio="xMidYMid meet">

<g transform="translate(0.000000,128.000000) scale(0.100000,-0.100000)"
fill="#000000" stroke="none">
<path d="M73 1160 c-12 -5 -26 -18 -32 -29 -7 -13 -11 -160 -11 -436 l0 -416
25 -24 24 -25 226 0 c193 0 225 2 225 15 0 13 -31 15 -215 15 -202 0 -216 1
-235 20 -19 19 -20 33 -20 416 0 253 4 402 10 415 10 18 27 19 570 19 543 0
560 -1 570 -19 6 -13 10 -162 10 -415 0 -383 -1 -397 -20 -416 -19 -19 -33
-20 -220 -20 -171 0 -200 -2 -200 -15 0 -13 30 -15 210 -15 211 0 211 0 235
25 l25 24 0 419 c0 398 -1 421 -19 443 l-19 24 -559 2 c-310 1 -568 -2 -580
-7z"/>
<path d="M137 1094 c-14 -15 -6 -34 14 -34 14 0 19 5 17 17 -3 18 -20 27 -31
17z"/>
<path d="M227 1094 c-14 -14 -7 -35 11 -32 9 2 17 10 17 17 0 16 -18 25 -28
15z"/>
<path d="M317 1093 c-4 -3 -7 -12 -7 -20 0 -15 26 -18 34 -4 7 11 -18 33 -27
24z"/>
<path d="M113 1008 c6 -19 1048 -19 1054 0 4 9 -106 12 -527 12 -421 0 -531
-3 -527 -12z"/>
<path d="M647 944 c-4 -4 -7 -23 -7 -41 0 -43 -22 -85 -73 -143 -22 -25 -46
-59 -53 -77 -29 -67 -12 -140 42 -182 l27 -21 -17 -177 c-10 -106 -13 -180 -7
-186 16 -16 25 16 36 123 l10 105 46 3 c55 4 54 5 64 -129 8 -91 17 -121 34
-104 7 7 4 71 -8 189 l-19 179 29 54 c51 96 37 217 -39 343 -39 64 -52 77 -65
64z m83 -183 c23 -73 25 -121 6 -174 -22 -59 -43 -77 -92 -77 -89 0 -141 93
-94 169 20 31 22 32 39 17 10 -9 28 -16 41 -16 25 0 90 36 90 50 0 20 -23 20
-56 -1 -31 -19 -37 -20 -50 -7 -13 13 -11 21 21 67 19 29 35 60 35 70 1 31 39
-32 60 -98z m-40 -296 c0 -10 -11 -15 -35 -15 -24 0 -35 5 -35 15 0 10 11 15
35 15 24 0 35 -5 35 -15z m10 -70 c0 -11 -12 -15 -45 -15 -33 0 -45 4 -45 15
0 11 12 15 45 15 33 0 45 -4 45 -15z"/>
<path d="M802 896 c-29 -27 -34 -37 -25 -47 9 -9 20 -5 47 19 37 32 60 33 71
4 4 -10 -8 -30 -35 -57 -22 -22 -40 -46 -40 -53 0 -24 29 -11 69 33 46 50 52
84 21 115 -30 30 -65 25 -108 -14z"/>
<path d="M480 810 c-16 -16 -19 -25 -11 -33 8 -8 17 -5 33 11 16 16 19 25 11
33 -8 8 -17 5 -33 -11z"/>
<path d="M300 634 c-67 -65 -123 -129 -126 -141 -10 -38 4 -70 33 -81 41 -14
59 -3 148 87 63 64 77 83 67 93 -10 10 -30 -5 -95 -70 -45 -45 -90 -82 -99
-82 -14 0 -28 19 -28 37 0 4 55 62 122 130 94 94 119 126 110 135 -9 9 -40
-16 -132 -108z"/>
<path d="M862 697 c-18 -18 -32 -36 -32 -40 0 -16 38 -5 60 18 28 30 46 32 60
5 10 -18 3 -29 -51 -86 -48 -50 -60 -67 -51 -76 9 -9 27 3 77 54 71 73 80 103
45 138 -30 30 -71 25 -108 -13z"/>
<path d="M402 497 c-53 -55 -36 -127 31 -127 32 0 97 54 97 81 0 26 -7 24 -52
-17 -41 -37 -55 -39 -72 -11 -8 13 -4 23 22 50 17 18 32 38 32 45 0 22 -26 13
-58 -21z"/>
<path d="M790 485 c-20 -24 2 -41 24 -20 16 16 14 35 -3 35 -5 0 -14 -7 -21
-15z"/>
</g>
</svg>
