<?xml version="1.0" standalone="no"?>
<!DOCTYPE svg PUBLIC "-//W3C//DTD SVG 20010904//EN"
 "http://www.w3.org/TR/2001/REC-SVG-20010904/DTD/svg10.dtd">
<svg version="1.0" xmlns="http://www.w3.org/2000/svg"
 width="128.000000pt" height="128.000000pt" viewBox="0 0 128.000000 128.000000"
 preserveAspectRatio="xMidYMid meet">

<g transform="translate(0.000000,128.000000) scale(0.100000,-0.100000)"
fill="#000000" stroke="none">
<path d="M162 1150 c-12 -5 -27 -21 -32 -36 -7 -17 -10 -194 -8 -490 3 -429 4
-465 21 -481 17 -17 50 -18 497 -18 447 0 481 1 497 18 16 16 18 40 18 250 0
225 -1 232 -20 232 -19 0 -20 -8 -23 -227 l-2 -228 -470 0 -470 0 0 385 0 384
73 3 c56 2 72 6 72 18 0 11 -16 16 -63 20 l-63 5 16 23 c13 18 26 22 69 22 51
0 54 -1 85 -45 l32 -45 360 0 359 0 0 -79 c0 -54 4 -82 14 -90 31 -25 37 11
34 183 -3 143 -5 168 -21 183 -16 17 -52 18 -485 20 -268 1 -477 -2 -490 -7z
m948 -105 l0 -65 -344 0 -345 0 -37 45 -36 45 -71 0 c-51 0 -75 -4 -89 -17
-17 -15 -18 -14 -18 20 l0 37 470 0 470 0 0 -65z"/>
<path d="M860 1050 c0 -15 5 -20 18 -18 9 2 17 10 17 18 0 8 -8 16 -17 18 -13
2 -18 -3 -18 -18z"/>
<path d="M945 1060 c-8 -14 3 -30 21 -30 8 0 14 9 14 20 0 21 -24 28 -35 10z"/>
<path d="M1037 1064 c-14 -14 -7 -35 11 -32 9 2 17 10 17 17 0 16 -18 25 -28
15z"/>
<path d="M215 867 c-3 -7 -4 -94 -3 -192 l3 -180 220 0 220 0 0 190 0 190
-218 3 c-171 2 -219 0 -222 -11z m345 -51 c-8 -8 -40 -34 -69 -59 l-55 -45
-68 56 c-37 31 -68 57 -68 59 0 2 62 3 137 3 119 0 135 -2 123 -14z m-228 -73
l70 -58 -49 -43 c-26 -24 -60 -52 -75 -63 l-28 -20 0 120 c0 67 3 121 6 121 3
0 37 -26 76 -57z m288 -64 l0 -121 -37 30 c-21 17 -55 45 -76 64 l-37 33 67
57 c38 31 71 57 76 57 4 1 7 -53 7 -120z m-114 -81 c34 -29 63 -56 63 -60 1
-5 -61 -8 -136 -8 l-138 1 65 59 c36 33 69 60 74 60 5 0 37 -24 72 -52z"/>
<path d="M712 868 c-18 -18 -16 -182 2 -197 9 -8 66 -11 182 -9 l169 3 0 105
0 105 -170 3 c-124 2 -174 -1 -183 -10z m211 -55 c-30 -15 -36 -15 -65 0 l-33
16 65 0 65 0 -32 -16z m-93 -45 c0 -4 -18 -17 -40 -28 l-40 -20 0 49 0 49 40
-21 c22 -12 40 -25 40 -29z m200 2 l0 -50 -45 22 c-25 12 -45 25 -45 28 0 5
73 46 88 49 1 1 2 -21 2 -49z m-100 -50 l25 -20 -67 0 c-38 0 -68 2 -68 5 0 7
54 34 70 34 8 0 26 -8 40 -19z"/>
<path d="M1114 709 c-9 -15 11 -33 30 -26 9 4 13 13 10 22 -7 17 -30 20 -40 4z"/>
<path d="M754 587 c-2 -7 -3 -89 -2 -182 l3 -170 135 0 135 0 3 169 c2 116 -1
173 -9 182 -16 19 -257 20 -265 1z m226 -177 l0 -141 -92 3 -93 3 -3 138 -3
137 96 0 95 0 0 -140z"/>
<path d="M221 441 c-8 -5 -11 -16 -8 -25 6 -14 27 -16 169 -14 155 3 163 4
163 23 0 19 -7 20 -155 22 -85 2 -161 -1 -169 -6z"/>
<path d="M215 350 c-16 -26 14 -30 226 -30 205 0 220 1 217 18 -3 15 -23 17
-220 20 -139 1 -219 -1 -223 -8z"/>
<path d="M212 253 c3 -16 16 -18 128 -18 104 0 125 2 125 15 0 12 -22 15 -128
18 -119 2 -128 1 -125 -15z"/>
<path d="M514 259 c-8 -14 11 -33 25 -25 6 4 11 14 11 22 0 16 -26 19 -36 3z"/>
<path d="M602 253 c2 -12 12 -18 28 -18 16 0 26 6 28 18 3 13 -3 17 -28 17
-25 0 -31 -4 -28 -17z"/>
</g>
</svg>
