<?xml version="1.0" standalone="no"?>
<!DOCTYPE svg PUBLIC "-//W3C//DTD SVG 20010904//EN"
 "http://www.w3.org/TR/2001/REC-SVG-20010904/DTD/svg10.dtd">
<svg version="1.0" xmlns="http://www.w3.org/2000/svg"
 width="200.000000pt" height="200.000000pt" viewBox="0 0 200.000000 200.000000"
 preserveAspectRatio="xMidYMid meet">

<g transform="translate(0.000000,200.000000) scale(0.100000,-0.100000)"
fill="#000000" stroke="none">
<path d="M725 1692 l-240 -139 -3 -521 -2 -522 520 0 520 0 -2 297 -3 297 -85
49 c-288 167 -429 247 -444 253 -14 5 -16 -8 -16 -128 l0 -135 155 -88 155
-89 0 -113 0 -113 -280 0 -280 0 0 338 0 337 126 72 125 72 237 -137 c130 -76
281 -162 334 -192 l98 -55 -3 -395 -2 -395 -635 0 -635 0 -5 546 -5 546 -117
-66 -117 -66 -1 -597 0 -598 880 0 880 0 0 579 0 579 -112 65 c-62 36 -266
153 -452 261 -186 108 -342 196 -345 196 -3 0 -114 -62 -246 -138z"/>
</g>
</svg>
