<?xml version="1.0" standalone="no"?><svg xmlns="http://www.w3.org/2000/svg" viewBox="0 0 1440 320"><path fill="#595959" fill-opacity="1" d="M0,160L26.7,160C53.3,160,107,160,160,149.3C213.3,139,267,117,320,117.3C373.3,117,427,139,480,160C533.3,181,587,203,640,224C693.3,245,747,267,800,272C853.3,277,907,267,960,245.3C1013.3,224,1067,192,1120,192C1173.3,192,1227,224,1280,213.3C1333.3,203,1387,149,1413,122.7L1440,96L1440,320L1413.3,320C1386.7,320,1333,320,1280,320C1226.7,320,1173,320,1120,320C1066.7,320,1013,320,960,320C906.7,320,853,320,800,320C746.7,320,693,320,640,320C586.7,320,533,320,480,320C426.7,320,373,320,320,320C266.7,320,213,320,160,320C106.7,320,53,320,27,320L0,320Z"></path></svg>